<?xml version="1.0" encoding="UTF-8"?>
<svg width="572px" height="170px" viewBox="0 0 572 170" version="1.1" xmlns="http://www.w3.org/2000/svg" xmlns:xlink="http://www.w3.org/1999/xlink">
    <!-- Generator: Sketch 45.1 (43504) - http://www.bohemiancoding.com/sketch -->
    <title>Logo</title>
    <desc>Created with Sketch.</desc>
    <defs></defs>
    <g id="Page-1" stroke="none" stroke-width="1" fill="none" fill-rule="evenodd">
        <g id="Desktop-HD-Copy" transform="translate(-374.000000, -362.000000)">
            <g id="Logo" transform="translate(374.000000, 362.000000)">
                <path d="M184.48003,33.06611 L404.633143,33.06611 L404.633143,140.307548 L184.48003,140.307548 L184.48003,33.06611 Z M196.614454,83.5617289 C196.614454,88.1226583 197.354726,92.2542617 198.835291,95.9566632 C200.315857,99.6590647 202.380825,102.811424 205.030258,105.413837 C207.679691,108.01625 210.822598,110.01498 214.459075,111.410088 C218.095552,112.805196 222.069642,113.502739 226.381464,113.502739 C230.693286,113.502739 234.667376,112.805196 238.303853,111.410088 C241.94033,110.01498 245.083237,108.01625 247.73267,105.413837 C250.382103,102.811424 252.447072,99.6590647 253.927637,95.9566632 C255.408203,92.2542617 256.148474,88.1226583 256.148474,83.5617289 C256.148474,79.0007996 255.408203,74.8691961 253.927637,71.1667946 C252.447072,67.4643932 250.382103,64.3120334 247.73267,61.7096208 C245.083237,59.1072081 241.94033,57.1084779 238.303853,55.7133701 C234.667376,54.3182623 230.693286,53.6207188 226.381464,53.6207188 C222.069642,53.6207188 218.095552,54.3182623 214.459075,55.7133701 C210.822598,57.1084779 207.679691,59.1072081 205.030258,61.7096208 C202.380825,64.3120334 200.315857,67.4643932 198.835291,71.1667946 C197.354726,74.8691961 196.614454,79.0007996 196.614454,83.5617289 Z M209.23816,83.5617289 C209.23816,80.9324873 209.640764,78.4910853 210.445983,76.2374496 C211.251203,73.9838139 212.407066,72.0387408 213.913606,70.4021721 C215.420147,68.7656033 217.225371,67.4912451 219.329332,66.5790592 C221.433294,65.6668734 223.783981,65.2107873 226.381464,65.2107873 C228.978947,65.2107873 231.329635,65.6668734 233.433596,66.5790592 C235.537558,67.4912451 237.342781,68.7656033 238.849322,70.4021721 C240.355862,72.0387408 241.511725,73.9838139 242.316945,76.2374496 C243.122164,78.4910853 243.524768,80.9324873 243.524768,83.5617289 C243.524768,86.2446285 243.122164,88.6994449 242.316945,90.9262516 C241.511725,93.1530583 240.355862,95.084717 238.849322,96.7212858 C237.342781,98.3578545 235.537558,99.6322128 233.433596,100.544399 C231.329635,101.456584 228.978947,101.912671 226.381464,101.912671 C223.783981,101.912671 221.433294,101.456584 219.329332,100.544399 C217.225371,99.6322128 215.420147,98.3578545 213.913606,96.7212858 C212.407066,95.084717 211.251203,93.1530583 210.445983,90.9262516 C209.640764,88.6994449 209.23816,86.2446285 209.23816,83.5617289 Z M264.018809,72.9374995 L264.018809,130.404922 L275.707426,130.404922 L275.707426,107.868678 L275.863274,107.868678 C277.213965,109.746708 278.941266,111.074723 281.045227,111.852764 C283.149189,112.630805 285.421953,113.019819 287.863587,113.019819 C290.56497,113.019819 292.980593,112.443005 295.110529,111.289358 C297.240466,110.135711 299.04569,108.593067 300.526255,106.661379 C302.006821,104.729691 303.149696,102.516332 303.954916,100.021236 C304.760136,97.5261392 305.16274,94.9103513 305.16274,92.1737937 C305.16274,89.2226041 304.721174,86.5129161 303.83803,84.0446484 C302.954885,81.5763808 301.695125,79.4435076 300.05871,77.6459648 C298.422296,75.8484221 296.461225,74.4533352 294.17544,73.4606624 C291.889655,72.4679895 289.344159,71.9716605 286.538877,71.9716605 C285.188186,71.9716605 283.915438,72.1594607 282.720596,72.5350666 C281.525753,72.9106726 280.42184,73.3935872 279.408821,73.9838252 C278.395803,74.5740631 277.512672,75.2313636 276.759401,75.9557465 C276.006131,76.6801294 275.395732,77.3910872 274.928185,78.0886411 L274.772337,78.0886411 L274.772337,72.9374995 L264.018809,72.9374995 Z M274.772337,92.49574 C274.772337,89.5445504 275.590532,87.1568056 277.226946,85.3324338 C278.863361,83.5080621 281.162099,82.5958899 284.12323,82.5958899 C287.084361,82.5958899 289.383099,83.5080621 291.019514,85.3324338 C292.655928,87.1568056 293.474123,89.5445504 293.474123,92.49574 C293.474123,95.4469296 292.655928,97.8346744 291.019514,99.6590462 C289.383099,101.483418 287.084361,102.39559 284.12323,102.39559 C281.162099,102.39559 278.863361,101.483418 277.226946,99.6590462 C275.590532,97.8346744 274.772337,95.4469296 274.772337,92.49574 Z M347.865152,105.293107 L339.68312,99.0956401 C338.696077,100.490748 337.540214,101.630963 336.215498,102.51632 C334.890781,103.401677 333.267378,103.844349 331.345241,103.844349 C329.059455,103.844349 327.137347,103.16022 325.578857,101.791941 C324.020367,100.423662 323.007363,98.5859032 322.539816,96.2786096 L349.657407,96.2786096 L349.657407,92.49574 C349.657407,89.3835764 349.241816,86.5665741 348.410621,84.0446484 C347.579426,81.5227228 346.397589,79.363021 344.865074,77.5654782 C343.332559,75.7679355 341.462399,74.3862629 339.254538,73.4204191 C337.046677,72.4545752 334.592092,71.9716605 331.890709,71.9716605 C328.981528,71.9716605 326.241224,72.4545752 323.669716,73.4204191 C321.098207,74.3862629 318.864405,75.7679355 316.968242,77.5654782 C315.072079,79.363021 313.578549,81.5227228 312.487606,84.0446484 C311.396663,86.5665741 310.8512,89.3835764 310.8512,92.49574 C310.8512,95.6079036 311.396663,98.4249059 312.487606,100.946832 C313.578549,103.468757 315.072079,105.628459 316.968242,107.426002 C318.864405,109.223544 321.098207,110.605217 323.669716,111.571061 C326.241224,112.536905 328.981528,113.019819 331.890709,113.019819 C334.95574,113.019819 337.916826,112.349105 340.774058,111.007655 C343.63129,109.666205 345.994964,107.761375 347.865152,105.293107 Z M337.96879,88.0689778 L322.539816,88.0689778 C322.591766,87.1031339 322.812549,86.1775474 323.202171,85.2921905 C323.591794,84.4068337 324.137257,83.6288044 324.838577,82.9580795 C325.539898,82.2873546 326.384067,81.7373684 327.371111,81.3081045 C328.358155,80.8788406 329.50103,80.6642118 330.799772,80.6642118 C332.929708,80.6642118 334.669996,81.3885839 336.020687,82.8373496 C337.371379,84.2861154 338.02074,86.029974 337.96879,88.0689778 Z M356.748501,72.9374995 L356.748501,112.05398 L368.437117,112.05398 L368.437117,92.5762266 C368.437117,91.2884348 368.515041,90.0543195 368.67089,88.8738436 C368.826739,87.6933678 369.151419,86.6336383 369.644941,85.6946235 C370.138463,84.7556086 370.85276,84.004408 371.787854,83.440999 C372.722948,82.8775901 373.943747,82.5958899 375.450287,82.5958899 C376.956827,82.5958899 378.11269,82.917833 378.91791,83.5617289 C379.72313,84.2056248 380.320542,85.0373112 380.710165,86.0568131 C381.099787,87.076315 381.333557,88.1897016 381.411482,89.3970064 C381.489406,90.6043113 381.528368,91.7713551 381.528368,92.8981729 L381.528368,112.05398 L393.216984,112.05398 L393.216984,90.4835753 C393.216984,87.8543337 393.035163,85.4129317 392.671516,83.159296 C392.307868,80.9056603 391.619545,78.947173 390.606527,77.2837752 C389.593508,75.6203774 388.177901,74.3191906 386.359663,73.3801758 C384.541424,72.4411609 382.151775,71.9716605 379.190644,71.9716605 C377.788003,71.9716605 376.489281,72.1594607 375.294439,72.5350666 C374.099597,72.9106726 373.034644,73.3935872 372.09955,73.9838252 C371.164456,74.5740631 370.359249,75.2447779 369.683903,75.9959898 C369.008557,76.7472017 368.489068,77.4984023 368.125421,78.2496142 L367.969573,78.2496142 L367.969573,72.9374995 L356.748501,72.9374995 Z" id="Combined-Shape" fill="#BDD6E4"></path>
                <path d="M14.8627866,117.782362 L0,117.782362 L0,54.6976168 L13.6777672,54.6976168 C19.3359051,54.6976168 23.6489221,55.0507096 26.6684419,55.7823235 C29.8840105,56.5536407 32.7339753,58.0210068 35.1768456,60.1627487 C39.4778595,63.8976063 41.6692591,68.6988667 41.6692591,74.3889077 C41.6692591,80.4678117 39.3164746,85.413703 34.6890512,89.0036172 C30.2029879,92.4838654 24.2606324,94.1930659 16.9385862,94.1930659 L14.8627866,94.1930659 L14.8627866,117.782362 Z M14.8364047,80.7690343 L19.0377399,80.7690343 C23.7856933,80.7690343 27.1484414,79.1468424 27.0668107,74.1911059 C26.9724552,68.4628567 22.9890028,67.8262277 18.7379751,67.8262277 L14.8364047,67.8262277 L14.8364047,80.7690343 Z M92.2456413,77.4215959 L92.2456413,54.6976168 L107.108428,54.6976168 L107.108428,117.782362 L92.2456413,117.782362 L92.2456413,90.6565526 L69.0373081,90.6565526 L69.0373081,117.782362 L54.1745215,117.782362 L54.1745215,54.6976168 L69.0373081,54.6976168 L69.0373081,77.4215959 L92.2456413,77.4215959 Z M162.709,102.049589 L162.709,117.782362 L124.286363,117.782362 L124.286363,54.6976168 L140.814361,54.6976168 L140.814361,102.049589 L162.709,102.049589 Z" id="PHL" fill="#FAF5EC" fill-rule="nonzero"></path>
                <path d="M210.84886,169.798943 C214.49528,169.798943 217.451304,166.749587 217.451304,162.988037 C217.451304,159.226488 214.49528,156.177132 210.84886,156.177132 L210.84886,169.798943 Z M210.84886,13.858177 L210.84886,0.236365871 C214.49528,0.236365871 217.451304,3.2856083 217.451304,7.04727145 C217.451304,10.8089346 214.49528,13.858177 210.84886,13.858177 Z M193.242341,138.020106 L180.037452,138.020106 L180.037452,32.0205919 L193.242341,32.0205919 L193.242341,138.020106 Z M180.037452,138.014717 C180.037452,155.568668 193.832181,169.798943 210.84886,169.798943 L210.84886,156.177132 C201.125043,156.177132 193.242341,148.045546 193.242341,138.014717 L180.037452,138.014717 Z M185.743206,13.5903509 C191.329431,5.50723311 200.492442,0.236365871 210.84886,0.236365871 L210.84886,13.858177 C201.125043,13.858177 193.242341,21.9897172 193.242341,32.0205919 L191.448968,32.0205919 L191.448968,138.014717 L178.244079,138.014717 L178.244079,32.0205919 C178.244079,21.9897626 170.361376,13.858177 160.63756,13.858177 L160.63756,0.236365871 C170.993973,0.236365871 180.156981,5.50723723 185.743206,13.5903509 Z M160.63756,0.236365871 L160.63756,13.858177 C156.99114,13.858177 154.035116,10.8088211 154.035116,7.04727145 C154.035116,3.28572182 156.99114,0.236365871 160.63756,0.236365871 Z M160.63756,156.177132 L160.63756,169.798943 C156.99114,169.798943 154.035116,166.749701 154.035116,162.988037 C154.035116,159.226374 156.99114,156.177132 160.63756,156.177132 Z M178.244079,138.014717 C178.244079,148.045592 170.361376,156.177132 160.63756,156.177132 L160.63756,169.798943 C177.654238,169.798943 191.448968,155.568691 191.448968,138.014717 L178.244079,138.014717 Z" id="Combined-Shape" fill="#FAF5EC" fill-rule="nonzero"></path>
                <path d="M435.937266,82.5958899 L425.651283,82.5958899 L425.651283,95.6347169 C425.651283,96.7078767 425.703232,97.6871204 425.807132,98.5724773 C425.911031,99.4578341 426.144801,100.222449 426.508449,100.866345 C426.872096,101.510241 427.430547,102.00657 428.183817,102.355347 C428.937087,102.704124 429.937103,102.87851 431.183895,102.87851 C431.807291,102.87851 432.625486,102.811438 433.638505,102.677293 C434.651523,102.543148 435.417769,102.234619 435.937266,101.751697 L435.937266,111.812521 C434.638524,112.295443 433.287853,112.617386 431.885212,112.77836 C430.482571,112.939334 429.105926,113.019819 427.755234,113.019819 C425.781147,113.019819 423.962936,112.805191 422.300547,112.375927 C420.638157,111.946663 419.183588,111.262534 417.936796,110.323519 C416.690004,109.384504 415.715963,108.163803 415.014642,106.661379 C414.313322,105.158955 413.962667,103.334611 413.962667,101.188291 L413.962667,82.5958899 L406.481952,82.5958899 L406.481952,72.9374995 L413.962667,72.9374995 L413.962667,61.3474311 L425.651283,61.3474311 L425.651283,72.9374995 L435.937266,72.9374995 L435.937266,82.5958899 Z M463.678249,118.412421 C462.899004,120.505082 462.145745,122.356255 461.41845,123.965995 C460.691155,125.575735 459.769062,126.930579 458.652144,128.030568 C457.535226,129.130557 456.119619,129.962243 454.40528,130.525652 C452.690941,131.089061 450.431164,131.370761 447.625882,131.370761 C444.612802,131.370761 441.703664,130.887846 438.898382,129.922003 L440.456864,120.022152 C442.223153,120.827022 444.041364,121.229451 445.911552,121.229451 C447.210294,121.229451 448.275246,121.081894 449.106441,120.786775 C449.937635,120.491656 450.625958,120.062399 451.171429,119.49899 C451.716901,118.935581 452.171454,118.251452 452.535101,117.446582 C452.898749,116.641712 453.288366,115.702711 453.703963,114.629551 L454.561128,112.375927 L437.963293,72.9374995 L450.586999,72.9374995 L460.327512,98.7736937 L460.483361,98.7736937 L468.82124,72.9374995 L480.821553,72.9374995 L463.678249,118.412421 Z M486.276241,72.9374995 L497.029768,72.9374995 L497.029768,78.0886411 L497.185617,78.0886411 C497.653164,77.3910872 498.263563,76.6801294 499.016833,75.9557465 C499.770103,75.2313636 500.653234,74.5740631 501.666253,73.9838252 C502.679271,73.3935872 503.783185,72.9106726 504.978028,72.5350666 C506.17287,72.1594607 507.445618,71.9716605 508.796309,71.9716605 C511.601591,71.9716605 514.147087,72.4679895 516.432872,73.4606624 C518.718657,74.4533352 520.679728,75.8484221 522.316142,77.6459648 C523.952557,79.4435076 525.212317,81.5763808 526.095462,84.0446484 C526.978606,86.5129161 527.420171,89.2226041 527.420171,92.1737937 C527.420171,94.9103513 527.017568,97.5261392 526.212348,100.021236 C525.407128,102.516332 524.264252,104.729691 522.783687,106.661379 C521.303121,108.593067 519.497898,110.135711 517.367961,111.289358 C515.238025,112.443005 512.822402,113.019819 510.121019,113.019819 C507.679385,113.019819 505.406621,112.630805 503.302659,111.852764 C501.198698,111.074723 499.471397,109.746708 498.120706,107.868678 L497.964858,107.868678 L497.964858,130.404922 L486.276241,130.404922 L486.276241,72.9374995 Z M497.029768,92.49574 C497.029768,95.4469296 497.847963,97.8346744 499.484378,99.6590462 C501.120792,101.483418 503.419531,102.39559 506.380662,102.39559 C509.341793,102.39559 511.640531,101.483418 513.276945,99.6590462 C514.91336,97.8346744 515.731555,95.4469296 515.731555,92.49574 C515.731555,89.5445504 514.91336,87.1568056 513.276945,85.3324338 C511.640531,83.5080621 509.341793,82.5958899 506.380662,82.5958899 C503.419531,82.5958899 501.120792,83.5080621 499.484378,85.3324338 C497.847963,87.1568056 497.029768,89.5445504 497.029768,92.49574 Z M570.122584,105.293107 C568.252396,107.761375 565.888722,109.666205 563.03149,111.007655 C560.174258,112.349105 557.213172,113.019819 554.148141,113.019819 C551.23896,113.019819 548.498656,112.536905 545.927148,111.571061 C543.355639,110.605217 541.121837,109.223544 539.225674,107.426002 C537.329511,105.628459 535.835981,103.468757 534.745038,100.946832 C533.654095,98.4249059 533.108632,95.6079036 533.108632,92.49574 C533.108632,89.3835764 533.654095,86.5665741 534.745038,84.0446484 C535.835981,81.5227228 537.329511,79.363021 539.225674,77.5654782 C541.121837,75.7679355 543.355639,74.3862629 545.927148,73.4204191 C548.498656,72.4545752 551.23896,71.9716605 554.148141,71.9716605 C556.849524,71.9716605 559.304109,72.4545752 561.51197,73.4204191 C563.719831,74.3862629 565.589991,75.7679355 567.122506,77.5654782 C568.655021,79.363021 569.836858,81.5227228 570.668053,84.0446484 C571.499247,86.5665741 571.914838,89.3835764 571.914838,92.49574 L571.914838,96.2786096 L544.797248,96.2786096 C545.264795,98.5859032 546.277798,100.423662 547.836288,101.791941 C549.394778,103.16022 551.316887,103.844349 553.602673,103.844349 C555.52481,103.844349 557.148213,103.401677 558.472929,102.51632 C559.797646,101.630963 560.953509,100.490748 561.940552,99.0956401 L570.122584,105.293107 Z M560.226222,88.0689778 C560.278172,86.029974 559.62881,84.2861154 558.278119,82.8373496 C556.927428,81.3885839 555.18714,80.6642118 553.057204,80.6642118 C551.758462,80.6642118 550.615587,80.8788406 549.628543,81.3081045 C548.641499,81.7373684 547.79733,82.2873546 547.096009,82.9580795 C546.394689,83.6288044 545.849225,84.4068337 545.459603,85.2921905 C545.06998,86.1775474 544.849198,87.1031339 544.797248,88.0689778 L560.226222,88.0689778 Z" id="Combined-Shape" fill="#FAF5EC"></path>
            </g>
        </g>
    </g>
</svg>