<?xml version="1.0" encoding="UTF-8"?>
<svg width="738px" height="329px" viewBox="0 0 738 329" version="1.1" xmlns="http://www.w3.org/2000/svg" xmlns:xlink="http://www.w3.org/1999/xlink">
    <!-- Generator: Sketch 42 (36781) - http://www.bohemiancoding.com/sketch -->
    <title>Logo</title>
    <desc>Created with Sketch.</desc>
    <defs>
        <filter x="-50%" y="-50%" width="200%" height="200%" filterUnits="objectBoundingBox" id="filter-1">
            <feOffset dx="0" dy="2" in="SourceAlpha" result="shadowOffsetOuter1"></feOffset>
            <feGaussianBlur stdDeviation="43.5" in="shadowOffsetOuter1" result="shadowBlurOuter1"></feGaussianBlur>
            <feColorMatrix values="0 0 0 0 0.181937763   0 0 0 0 0.186277636   0 0 0 0 0.179798638  0 0 0 0.38952106 0" type="matrix" in="shadowBlurOuter1" result="shadowMatrixOuter1"></feColorMatrix>
            <feMerge>
                <feMergeNode in="shadowMatrixOuter1"></feMergeNode>
                <feMergeNode in="SourceGraphic"></feMergeNode>
            </feMerge>
        </filter>
    </defs>
    <g id="Page-1" stroke="none" stroke-width="1" fill="none" fill-rule="evenodd">
        <g id="Desktop-HD" transform="translate(-347.000000, -291.000000)">
            <g id="Logo" filter="url(#filter-1)" transform="translate(433.000000, 371.000000)">
                <path d="M184.282012,32.1315789 L404.596037,32.1315789 L404.596037,136.342105 L184.282012,136.342105 L184.282012,32.1315789 Z M196.425305,81.2000654 C196.425305,85.6320915 197.166118,89.6469255 198.647765,93.2446878 C200.129413,96.8424502 202.19589,99.9057164 204.84726,102.434578 C207.498629,104.96344 210.643834,106.905681 214.282969,108.26136 C217.922104,109.617038 221.899098,110.294868 226.214072,110.294868 C230.529046,110.294868 234.50604,109.617038 238.145175,108.26136 C241.78431,106.905681 244.929515,104.96344 247.580884,102.434578 C250.232254,99.9057164 252.298731,96.8424502 253.780379,93.2446878 C255.262026,89.6469255 256.002839,85.6320915 256.002839,81.2000654 C256.002839,76.7680393 255.262026,72.7532053 253.780379,69.155443 C252.298731,65.5576806 250.232254,62.4944144 247.580884,59.9655525 C244.929515,57.4366905 241.78431,55.4944494 238.145175,54.1387708 C234.50604,52.7830923 230.529046,52.1052632 226.214072,52.1052632 C221.899098,52.1052632 217.922104,52.7830923 214.282969,54.1387708 C210.643834,55.4944494 207.498629,57.4366905 204.84726,59.9655525 C202.19589,62.4944144 200.129413,65.5576806 198.647765,69.155443 C197.166118,72.7532053 196.425305,76.7680393 196.425305,81.2000654 Z M209.058238,81.2000654 C209.058238,78.6451327 209.461136,76.2727308 210.266944,74.0827885 C211.072752,71.8928462 212.22946,70.0027458 213.737101,68.4124305 C215.244743,66.8221153 217.051286,65.5837736 219.156786,64.6973684 C221.262285,63.8109632 223.61469,63.3677672 226.214072,63.3677672 C228.813454,63.3677672 231.165859,63.8109632 233.271358,64.6973684 C235.376858,65.5837736 237.183401,66.8221153 238.691043,68.4124305 C240.198684,70.0027458 241.355392,71.8928462 242.1612,74.0827885 C242.967008,76.2727308 243.369906,78.6451327 243.369906,81.2000654 C243.369906,83.8071395 242.967008,86.1925766 242.1612,88.3564482 C241.355392,90.5203197 240.198684,92.397385 238.691043,93.9877002 C237.183401,95.5780155 235.376858,96.8163571 233.271358,97.7027623 C231.165859,98.5891676 228.813454,99.0323635 226.214072,99.0323635 C223.61469,99.0323635 221.262285,98.5891676 219.156786,97.7027623 C217.051286,96.8163571 215.244743,95.5780155 213.737101,93.9877002 C212.22946,92.397385 211.072752,90.5203197 210.266944,88.3564482 C209.461136,86.1925766 209.058238,83.8071395 209.058238,81.2000654 Z M263.878927,70.8761033 L263.878927,126.719353 L275.576087,126.719353 L275.576087,104.820039 L275.732049,104.820039 C277.083727,106.644991 278.81229,107.935473 280.91779,108.691525 C283.023289,109.447577 285.297714,109.825597 287.741133,109.825597 C290.44449,109.825597 292.861879,109.265084 294.993372,108.144042 C297.124865,107.023 298.931408,105.523955 300.413056,103.646862 C301.894704,101.769768 303.038415,99.6189644 303.844223,97.1943854 C304.650031,94.7698064 305.05293,92.2279473 305.05293,89.5687316 C305.05293,86.70095 304.611041,84.0678446 303.727251,81.6693364 C302.843462,79.2708282 301.58278,77.1982353 299.94517,75.4514956 C298.307559,73.7047559 296.345055,72.3490977 294.057599,71.3844802 C291.770143,70.4198628 289.222787,69.9375613 286.415455,69.9375613 C285.063776,69.9375613 283.790098,70.1200537 282.594383,70.4850441 C281.398667,70.8500345 280.293946,71.3193008 279.280187,71.8928571 C278.266428,72.4664135 277.382652,73.105137 276.628831,73.8090471 C275.87501,74.5129571 275.264165,75.2038214 274.796276,75.8816607 L274.640314,75.8816607 L274.640314,70.8761033 L263.878927,70.8761033 Z M274.640314,89.8815789 C274.640314,87.0137974 275.459107,84.6935362 277.096717,82.9207257 C278.734328,81.1479153 281.034746,80.2615234 283.998042,80.2615234 C286.961337,80.2615234 289.261756,81.1479153 290.899366,82.9207257 C292.536977,84.6935362 293.35577,87.0137974 293.35577,89.8815789 C293.35577,92.7493605 292.536977,95.0696217 290.899366,96.8424322 C289.261756,98.6152426 286.961337,99.5016345 283.998042,99.5016345 C281.034746,99.5016345 278.734328,98.6152426 277.096717,96.8424322 C275.459107,95.0696217 274.640314,92.7493605 274.640314,89.8815789 Z M347.786554,102.317261 L339.598542,96.2949493 C338.610777,97.6506279 337.454069,98.7586178 336.128384,99.6189523 C334.8027,100.479287 333.17811,100.909448 331.254568,100.909448 C328.967112,100.909448 327.043598,100.244654 325.483969,98.9150458 C323.92434,97.5854379 322.910596,95.7996189 322.442707,93.5575351 L349.580118,93.5575351 L349.580118,89.8815789 C349.580118,86.8573729 349.164223,84.1199861 348.332421,81.6693364 C347.500619,79.2186867 346.317918,77.1200234 344.784283,75.3732838 C343.250647,73.6265441 341.37912,72.283921 339.169646,71.3453743 C336.960171,70.4068276 334.503792,69.9375613 331.800435,69.9375613 C328.889127,69.9375613 326.146821,70.4068276 323.573433,71.3453743 C321.000045,72.283921 318.76461,73.6265441 316.867061,75.3732838 C314.969512,77.1200234 313.47489,79.2186867 312.38315,81.6693364 C311.291409,84.1199861 310.745547,86.8573729 310.745547,89.8815789 C310.745547,92.905785 311.291409,95.6431718 312.38315,98.0938215 C313.47489,100.544471 314.969512,102.643134 316.867061,104.389874 C318.76461,106.136614 321.000045,107.479237 323.573433,108.417784 C326.146821,109.35633 328.889127,109.825597 331.800435,109.825597 C334.867706,109.825597 337.830957,109.173838 340.690277,107.870301 C343.549597,106.566764 345.914999,104.715769 347.786554,102.317261 Z M337.882958,85.5799281 L322.442707,85.5799281 C322.494695,84.6413814 322.715639,83.7419543 323.105546,82.8816198 C323.495454,82.0212853 324.041316,81.2652452 324.743149,80.6134766 C325.444982,79.9617081 326.289768,79.4272659 327.277533,79.010134 C328.265298,78.5930022 329.409009,78.3844394 330.7087,78.3844394 C332.840193,78.3844394 334.581753,79.0883388 335.933432,80.4961589 C337.28511,81.9039789 337.934946,83.5985517 337.882958,85.5799281 Z M356.676395,70.8761033 L356.676395,108.887055 L368.373555,108.887055 L368.373555,89.9597908 C368.373555,88.7083952 368.451535,87.5091591 368.607498,86.3620464 C368.763461,85.2149338 369.088379,84.1851549 369.582262,83.272679 C370.076144,82.360203 370.790963,81.6302332 371.726741,81.0827476 C372.662518,80.5352621 373.884209,80.2615234 375.391851,80.2615234 C376.899492,80.2615234 378.0562,80.5743676 378.862008,81.2000654 C379.667817,81.8257632 380.265666,82.633944 380.655573,83.6246322 C381.04548,84.6153204 381.279421,85.69724 381.357402,86.8704233 C381.435384,88.0436067 381.474374,89.177667 381.474374,90.2726381 L381.474374,108.887055 L393.171534,108.887055 L393.171534,87.9262831 C393.171534,85.3713504 392.98958,82.9989485 392.625666,80.8090062 C392.261753,78.6190639 391.572927,76.7159283 390.559168,75.0995423 C389.545409,73.4831564 388.128767,72.2187443 386.3092,71.3062684 C384.489633,70.3937924 382.098237,69.9375613 379.134942,69.9375613 C377.731276,69.9375613 376.431604,70.1200537 375.235889,70.4850441 C374.040173,70.8500345 372.974443,71.3193008 372.038665,71.8928571 C371.102888,72.4664135 370.297091,73.1181722 369.621252,73.848153 C368.945413,74.5781338 368.425544,75.3081036 368.061631,76.0380843 L367.905669,76.0380843 L367.905669,70.8761033 L356.676395,70.8761033 Z" id="Combined-Shape" fill-opacity="0.768399004" fill="#F8F5EF"></path>
                <path d="M15.8743654,115.026316 L0,115.026316 L4.4408921e-16,52.5789474 L14.1881222,52.5789474 C19.8805981,52.5789474 24.2261428,52.924396 27.2857862,53.6442545 C30.5738936,54.4101207 33.4942338,55.8701584 35.9978776,58.0015944 C40.4279868,61.7370989 42.700431,66.571677 42.700431,72.286491 C42.700431,78.3878593 40.2583577,83.372717 35.4876568,86.9665564 C30.907486,90.4168666 24.8678706,92.1037122 17.4513245,92.1037122 L15.8743654,92.1037122 L15.8743654,115.026316 Z M15,78.9398869 L17.5588235,78.9398869 C23.8529726,78.9398869 27,76.6764307 27,72.1494505 C27,67.7690932 23.7549344,65.5789474 17.2647059,65.5789474 L15,65.5789474 L15,78.9398869 Z M69.2552695,74.6606899 L91.4798504,74.6606899 L91.4798504,52.5789474 L107.354216,52.5789474 L107.354216,115.026316 L91.4798504,115.026316 L91.4798504,88.6671496 L69.2552695,88.6671496 L69.2552695,115.026316 L53.3809041,115.026316 L53.3809041,52.5789474 L69.2552695,52.5789474 L69.2552695,74.6606899 Z M162.995427,101.019856 L162.995427,115.026316 L123.543991,115.026316 L123.543991,52.5789474 L139.418357,52.5789474 L139.418357,101.019856 L162.995427,101.019856 Z" id="PHL" fill="#FAF5EC" fill-rule="nonzero"></path>
                <path d="M210.670115,165 C214.3192,165 217.277385,162.036826 217.277385,158.381588 C217.277385,154.726349 214.3192,151.763175 210.670115,151.763175 L210.670115,165 Z M210.670115,13.4665103 L210.670115,0.22968558 C214.3192,0.22968558 217.277385,3.19274879 217.277385,6.84809793 C217.277385,10.5034471 214.3192,13.4665103 210.670115,13.4665103 Z M193.050727,134.119312 L179.836186,134.119312 L179.836186,31.1156099 L193.050727,31.1156099 L193.050727,134.119312 Z M179.836186,134.114076 C179.836186,151.171908 193.640999,165 210.670115,165 L210.670115,151.763175 C200.939191,151.763175 193.050727,143.861409 193.050727,134.114076 L179.836186,134.114076 Z M185.546111,13.2062535 C191.136419,5.35158492 200.306128,0.22968558 210.670115,0.22968558 L210.670115,13.4665103 C200.939191,13.4665103 193.050727,21.3682328 193.050727,31.1156099 L191.256043,31.1156099 L191.256043,134.114076 L178.041503,134.114076 L178.041503,31.1156099 C178.041503,21.3682769 170.153039,13.4665103 160.422115,13.4665103 L160.422115,0.22968558 C170.786098,0.22968558 179.955803,5.35158892 185.546111,13.2062535 Z M160.422115,0.22968558 L160.422115,13.4665103 C156.77303,13.4665103 153.814845,10.5033368 153.814845,6.84809793 C153.814845,3.1928591 156.77303,0.22968558 160.422115,0.22968558 Z M160.422115,151.763175 L160.422115,165 C156.77303,165 153.814845,162.036937 153.814845,158.381588 C153.814845,154.726239 156.77303,151.763175 160.422115,151.763175 Z M178.041503,134.114076 C178.041503,143.861453 170.153039,151.763175 160.422115,151.763175 L160.422115,165 C177.451231,165 191.256043,151.17193 191.256043,134.114076 L178.041503,134.114076 Z" id="Combined-Shape" fill="#FAF5EC" fill-rule="nonzero"></path>
                <path d="M435.92304,80.2615234 L425.629539,80.2615234 L425.629539,92.9318405 C425.629539,93.9746701 425.681526,94.9262379 425.785502,95.7865724 C425.889477,96.6469069 426.123418,97.3899119 426.487331,98.0156097 C426.851245,98.6413075 427.410103,99.123609 428.163924,99.4625286 C428.917745,99.8014482 429.918492,99.9709055 431.166195,99.9709055 C431.790047,99.9709055 432.60884,99.9057296 433.622599,99.7753759 C434.636358,99.6450222 435.403164,99.3452132 435.92304,98.8759398 L435.92304,108.652419 C434.623349,109.121692 433.271691,109.434537 431.868025,109.590961 C430.464359,109.747386 429.086707,109.825597 427.735028,109.825597 C425.759498,109.825597 423.939958,109.617034 422.276354,109.199902 C420.612749,108.78277 419.157117,108.117976 417.909414,107.2055 C416.661711,106.293024 415.686957,105.106823 414.985124,103.646862 C414.283291,102.1869 413.93238,100.414116 413.93238,98.328457 L413.93238,80.2615234 L406.446197,80.2615234 L406.446197,70.8761033 L413.93238,70.8761033 L413.93238,59.6135992 L425.629539,59.6135992 L425.629539,70.8761033 L435.92304,70.8761033 L435.92304,80.2615234 Z M463.6843,115.065789 C462.904485,117.099307 462.150676,118.898162 461.422849,120.462406 C460.695022,122.026651 459.772255,123.343203 458.654521,124.412104 C457.536787,125.481004 456.120145,126.289185 454.404553,126.83667 C452.688961,127.384156 450.427532,127.657895 447.6202,127.657895 C444.604917,127.657895 441.693653,127.188628 438.886321,126.250082 L440.445942,116.630026 C442.213522,117.412148 444.033062,117.803204 445.904617,117.803204 C447.204308,117.803204 448.270038,117.659817 449.10184,117.373039 C449.933642,117.08626 450.622468,116.669135 451.168339,116.121649 C451.714209,115.574164 452.169094,114.90937 452.533007,114.127247 C452.896921,113.345125 453.286822,112.432663 453.702723,111.389833 L454.560515,109.199902 L437.950548,70.8761033 L450.583481,70.8761033 L460.331114,95.982102 L460.487076,95.982102 L468.83105,70.8761033 L480.840134,70.8761033 L463.6843,115.065789 Z M486.298809,70.8761033 L497.060196,70.8761033 L497.060196,75.8816607 L497.216158,75.8816607 C497.684047,75.2038214 498.294892,74.5129571 499.048713,73.8090471 C499.802534,73.105137 500.68631,72.4664135 501.700069,71.8928571 C502.713828,71.3193008 503.818549,70.8500345 505.014264,70.4850441 C506.20998,70.1200537 507.483658,69.9375613 508.835337,69.9375613 C511.642669,69.9375613 514.190025,70.4198628 516.477481,71.3844802 C518.764937,72.3490977 520.727441,73.7047559 522.365052,75.4514956 C524.002662,77.1982353 525.263343,79.2708282 526.147133,81.6693364 C527.030923,84.0678446 527.472811,86.70095 527.472811,89.5687316 C527.472811,92.2279473 527.069913,94.7698064 526.264105,97.1943854 C525.458297,99.6189644 524.314586,101.769768 522.832938,103.646862 C521.35129,105.523955 519.544747,107.023 517.413254,108.144042 C515.281761,109.265084 512.864372,109.825597 510.161015,109.825597 C507.717596,109.825597 505.443171,109.447577 503.337672,108.691525 C501.232172,107.935473 499.503609,106.644991 498.151931,104.820039 L497.995969,104.820039 L497.995969,126.719353 L486.298809,126.719353 L486.298809,70.8761033 Z M497.060196,89.8815789 C497.060196,92.7493605 497.878989,95.0696217 499.516599,96.8424322 C501.15421,98.6152426 503.454628,99.5016345 506.417924,99.5016345 C509.381219,99.5016345 511.681637,98.6152426 513.319248,96.8424322 C514.956859,95.0696217 515.775652,92.7493605 515.775652,89.8815789 C515.775652,87.0137974 514.956859,84.6935362 513.319248,82.9207257 C511.681637,81.1479153 509.381219,80.2615234 506.417924,80.2615234 C503.454628,80.2615234 501.15421,81.1479153 499.516599,82.9207257 C497.878989,84.6935362 497.060196,87.0137974 497.060196,89.8815789 Z M570.206435,102.317261 C568.334881,104.715769 565.969479,106.566764 563.110158,107.870301 C560.250838,109.173838 557.287588,109.825597 554.220317,109.825597 C551.309009,109.825597 548.566703,109.35633 545.993315,108.417784 C543.419927,107.479237 541.184492,106.136614 539.286943,104.389874 C537.389394,102.643134 535.894772,100.544471 534.803032,98.0938215 C533.711291,95.6431718 533.165429,92.905785 533.165429,89.8815789 C533.165429,86.8573729 533.711291,84.1199861 534.803032,81.6693364 C535.894772,79.2186867 537.389394,77.1200234 539.286943,75.3732838 C541.184492,73.6265441 543.419927,72.283921 545.993315,71.3453743 C548.566703,70.4068276 551.309009,69.9375613 554.220317,69.9375613 C556.923674,69.9375613 559.380053,70.4068276 561.589528,71.3453743 C563.799002,72.283921 565.670529,73.6265441 567.204164,75.3732838 C568.7378,77.1200234 569.920501,79.2186867 570.752303,81.6693364 C571.584105,84.1199861 572,86.8573729 572,89.8815789 L572,93.5575351 L544.862589,93.5575351 C545.330478,95.7996189 546.344222,97.5854379 547.903851,98.9150458 C549.46348,100.244654 551.386994,100.909448 553.67445,100.909448 C555.597992,100.909448 557.222581,100.479287 558.548266,99.6189523 C559.873951,98.7586178 561.030658,97.6506279 562.018424,96.2949493 L570.206435,102.317261 Z M560.30284,85.5799281 C560.354828,83.5985517 559.704992,81.9039789 558.353313,80.4961589 C557.001635,79.0883388 555.260075,78.3844394 553.128582,78.3844394 C551.828891,78.3844394 550.68518,78.5930022 549.697415,79.010134 C548.70965,79.4272659 547.864864,79.9617081 547.163031,80.6134766 C546.461197,81.2652452 545.915335,82.0212853 545.525428,82.8816198 C545.135521,83.7419543 544.914577,84.6413814 544.862589,85.5799281 L560.30284,85.5799281 Z" id="Combined-Shape" fill="#FAF5EC"></path>
            </g>
        </g>
    </g>
</svg>